<svg width="501" height="500" viewBox="0 0 501 500" fill="none" xmlns="http://www.w3.org/2000/svg">
<rect width="500" height="500" rx="25" fill="#E41C24"/>
<path d="M427.722 186.536C427.722 145.416 427.64 140.489 426.936 139.786C425.828 138.678 367.193 138.58 366.276 139.685C365.872 140.172 365.746 145.09 365.84 156.795L365.972 173.221L367.14 173.803C367.781 174.123 368.557 174.635 368.865 174.942C369.243 175.321 373.232 175.5 381.322 175.5H393.222V250.25V325H382.706C374.49 325 371.797 325.164 370.395 325.75C369.408 326.163 368.186 326.5 367.678 326.5C365.897 326.5 365.722 328.054 365.722 343.871C365.722 356.414 365.855 359.491 366.432 360.28C367.542 361.799 425.901 361.799 427.012 360.28C427.613 359.458 427.722 352.262 427.722 313.405V267.5H440.872C450.433 267.5 454.186 267.336 454.622 266.9C455.637 265.885 455.463 234.313 454.436 233.286C453.762 232.611 451.806 232.5 440.686 232.5H427.722V186.536Z" fill="#F7BBBD"/>
<path d="M135.133 154.106C134.997 142.199 134.853 139.888 134.222 139.489C133.215 138.853 74.7285 138.854 73.7222 139.489C73.066 139.904 72.9547 145.751 72.8322 186.231L72.6922 232.5H60.0535C49.9272 232.5 47.2197 232.641 46.4422 233.21C45.4347 233.946 44.8785 264.305 45.831 266.625C46.161 267.428 47.2922 267.5 59.441 267.5H72.6922L72.8322 313.725C72.9447 350.844 73.0997 360.079 73.6222 360.6C74.6135 361.591 132.706 361.55 133.902 360.559C135.098 359.565 134.927 327.583 133.722 326.989C130.34 325.324 127.73 324.995 117.912 324.997L107.853 325L107.543 323.125C107.136 320.664 107.128 179.095 107.535 177.062L107.847 175.5H119.5C136.58 175.5 135.395 177.123 135.133 154.106Z" fill="#F7BBBD"/>
<path d="M225 248.5L172.354 193.5L199.646 168.354L253 220.5L305.354 168.354L333.5 196L280.5 248.5L331.656 300.354L305.354 327.646L253 275L199.646 327.646L172.354 300.354L225 248.5Z" fill="white" stroke="white"/>
</svg>
